<svg width="20" height="20" viewBox="0 0 20 20" fill="none" xmlns="http://www.w3.org/2000/svg">
<path d="M15.3695 10.735C15.3995 10.495 15.422 10.255 15.422 10C15.422 9.745 15.3995 9.505 15.3695 9.265L16.952 8.0275C17.0945 7.915 17.132 7.7125 17.042 7.5475L15.542 4.9525C15.4745 4.8325 15.347 4.765 15.212 4.765C15.167 4.765 15.122 4.7725 15.0845 4.7875L13.217 5.5375C12.827 5.2375 12.407 4.99 11.9495 4.8025L11.6645 2.815C11.642 2.635 11.4845 2.5 11.297 2.5H8.297C8.1095 2.5 7.952 2.635 7.9295 2.815L7.6445 4.8025C7.187 4.99 6.767 5.245 6.377 5.5375L4.5095 4.7875C4.4645 4.7725 4.4195 4.765 4.3745 4.765C4.247 4.765 4.1195 4.8325 4.052 4.9525L2.552 7.5475C2.4545 7.7125 2.4995 7.915 2.642 8.0275L4.2245 9.265C4.1945 9.505 4.172 9.7525 4.172 10C4.172 10.2475 4.1945 10.495 4.2245 10.735L2.642 11.9725C2.4995 12.085 2.462 12.2875 2.552 12.4525L4.052 15.0475C4.1195 15.1675 4.247 15.235 4.382 15.235C4.427 15.235 4.472 15.2275 4.5095 15.2125L6.377 14.4625C6.767 14.7625 7.187 15.01 7.6445 15.1975L7.9295 17.185C7.952 17.365 8.1095 17.5 8.297 17.5H11.297C11.4845 17.5 11.642 17.365 11.6645 17.185L11.9495 15.1975C12.407 15.01 12.827 14.755 13.217 14.4625L15.0845 15.2125C15.1295 15.2275 15.1745 15.235 15.2195 15.235C15.347 15.235 15.4745 15.1675 15.542 15.0475L17.042 12.4525C17.132 12.2875 17.0945 12.085 16.952 11.9725L15.3695 10.735ZM13.8845 9.4525C13.9145 9.685 13.922 9.8425 13.922 10C13.922 10.1575 13.907 10.3225 13.8845 10.5475L13.7795 11.395L14.447 11.92L15.257 12.55L14.732 13.4575L13.7795 13.075L12.9995 12.76L12.3245 13.27C12.002 13.51 11.6945 13.69 11.387 13.8175L10.592 14.14L10.472 14.9875L10.322 16H9.272L9.1295 14.9875L9.0095 14.14L8.2145 13.8175C7.892 13.6825 7.592 13.51 7.292 13.285L6.6095 12.76L5.8145 13.0825L4.862 13.465L4.337 12.5575L5.147 11.9275L5.8145 11.4025L5.7095 10.555C5.687 10.3225 5.672 10.15 5.672 10C5.672 9.85 5.687 9.6775 5.7095 9.4525L5.8145 8.605L5.147 8.08L4.337 7.45L4.862 6.5425L5.8145 6.925L6.5945 7.24L7.2695 6.73C7.592 6.49 7.8995 6.31 8.207 6.1825L9.002 5.86L9.122 5.0125L9.272 4H10.3145L10.457 5.0125L10.577 5.86L11.372 6.1825C11.6945 6.3175 11.9945 6.49 12.2945 6.715L12.977 7.24L13.772 6.9175L14.7245 6.535L15.2495 7.4425L14.447 8.08L13.7795 8.605L13.8845 9.4525ZM9.797 7C8.1395 7 6.797 8.3425 6.797 10C6.797 11.6575 8.1395 13 9.797 13C11.4545 13 12.797 11.6575 12.797 10C12.797 8.3425 11.4545 7 9.797 7ZM9.797 11.5C8.972 11.5 8.297 10.825 8.297 10C8.297 9.175 8.972 8.5 9.797 8.5C10.622 8.5 11.297 9.175 11.297 10C11.297 10.825 10.622 11.5 9.797 11.5Z" fill="#8E93A8"/>
</svg>
