<svg width="20" height="20" viewBox="0 0 20 20" fill="none" xmlns="http://www.w3.org/2000/svg">
<path d="M9.9925 2.5C5.8525 2.5 2.5 5.86 2.5 10C2.5 14.14 5.8525 17.5 9.9925 17.5C14.14 17.5 17.5 14.14 17.5 10C17.5 5.86 14.14 2.5 9.9925 2.5ZM15.19 7H12.9775C12.7375 6.0625 12.3925 5.1625 11.9425 4.33C13.3225 4.8025 14.47 5.7625 15.19 7ZM10 4.03C10.6225 4.93 11.11 5.9275 11.4325 7H8.5675C8.89 5.9275 9.3775 4.93 10 4.03ZM4.195 11.5C4.075 11.02 4 10.5175 4 10C4 9.4825 4.075 8.98 4.195 8.5H6.73C6.67 8.995 6.625 9.49 6.625 10C6.625 10.51 6.67 11.005 6.73 11.5H4.195ZM4.81 13H7.0225C7.2625 13.9375 7.6075 14.8375 8.0575 15.67C6.6775 15.1975 5.53 14.245 4.81 13ZM7.0225 7H4.81C5.53 5.755 6.6775 4.8025 8.0575 4.33C7.6075 5.1625 7.2625 6.0625 7.0225 7ZM10 15.97C9.3775 15.07 8.89 14.0725 8.5675 13H11.4325C11.11 14.0725 10.6225 15.07 10 15.97ZM11.755 11.5H8.245C8.1775 11.005 8.125 10.51 8.125 10C8.125 9.49 8.1775 8.9875 8.245 8.5H11.755C11.8225 8.9875 11.875 9.49 11.875 10C11.875 10.51 11.8225 11.005 11.755 11.5ZM11.9425 15.67C12.3925 14.8375 12.7375 13.9375 12.9775 13H15.19C14.47 14.2375 13.3225 15.1975 11.9425 15.67ZM13.27 11.5C13.33 11.005 13.375 10.51 13.375 10C13.375 9.49 13.33 8.995 13.27 8.5H15.805C15.925 8.98 16 9.4825 16 10C16 10.5175 15.925 11.02 15.805 11.5H13.27Z" fill="#CBCEDA"/>
</svg>
