<svg width="180" height="80" viewBox="0 0 180 80" fill="none" xmlns="http://www.w3.org/2000/svg">
<rect x="0.5" y="0.5" width="179" height="79" rx="7.5" fill="#F1F2F4"/>
<path fill-rule="evenodd" clip-rule="evenodd" d="M85.0696 30H94.9304C95.702 30 96.3156 30 96.8106 30.0447C97.3176 30.0904 97.7498 30.186 98.1456 30.4087C98.7847 30.7683 99.3042 31.3419 99.6298 32.0475C99.8315 32.4846 99.9181 32.9619 99.9596 33.5216C100 34.0682 100 34.7457 100 35.5976V43.1238C100 43.1246 100 43.1254 100 43.1262V44.4024C100 45.2543 100 45.9318 99.9596 46.4784C99.9181 47.0381 99.8315 47.5154 99.6298 47.9525C99.3042 48.6581 98.7847 49.2317 98.1456 49.5913C97.7498 49.814 97.3176 49.9096 96.8106 49.9553C96.3156 50 95.7019 50 94.9304 50H85.0696C84.2981 50 83.6844 50 83.1894 49.9553C82.6824 49.9096 82.2502 49.814 81.8544 49.5913C81.2153 49.2317 80.6958 48.6581 80.3702 47.9525C80.1685 47.5154 80.0819 47.0381 80.0404 46.4784C80 45.9318 80 45.2543 80 44.4023V35.5977C80 34.7457 80 34.0682 80.0404 33.5216C80.0819 32.9619 80.1685 32.4846 80.3702 32.0475C80.6958 31.3419 81.2153 30.7683 81.8544 30.4087C82.2502 30.186 82.6824 30.0904 83.1894 30.0447C83.6844 30 84.298 30 85.0696 30ZM98.8679 41.6161V35.625C98.8679 34.7396 98.8675 34.1131 98.8312 33.6234C98.7955 33.141 98.7279 32.8465 98.6211 32.615C98.4041 32.1446 98.0577 31.7622 97.6317 31.5225C97.4221 31.4046 97.1554 31.3299 96.7184 31.2905C96.2749 31.2505 95.7075 31.25 94.9057 31.25H85.0943C84.2925 31.25 83.7251 31.2505 83.2816 31.2905C82.8446 31.3299 82.5779 31.4046 82.3683 31.5225C81.9423 31.7622 81.5959 32.1446 81.3789 32.615C81.2721 32.8465 81.2045 33.141 81.1688 33.6234C81.1325 34.1131 81.1321 34.7396 81.1321 35.625V44.375C81.1321 45.2604 81.1325 45.8869 81.1688 46.3766C81.2045 46.859 81.2721 47.1535 81.3789 47.385C81.5959 47.8554 81.9423 48.2378 82.3683 48.4775C82.3896 48.4895 82.4114 48.501 82.4339 48.512L88.5472 41.7619C88.7213 41.5696 88.8754 41.3995 89.0136 41.27C89.1607 41.1321 89.3265 41.004 89.5336 40.9297C89.8367 40.8209 90.1633 40.8209 90.4664 40.9297C90.6735 41.004 90.8393 41.1321 90.9864 41.27C91.1246 41.3995 91.2787 41.5696 91.4528 41.7619L91.8868 42.2411L94.2076 39.6785C94.3817 39.4863 94.5358 39.3161 94.6739 39.1866C94.821 39.0488 94.9869 38.9207 95.1939 38.8464C95.4971 38.7376 95.8237 38.7376 96.1268 38.8464C96.3339 38.9207 96.4997 39.0488 96.6468 39.1866C96.7849 39.3161 96.939 39.4863 97.1131 39.6785L98.8679 41.6161ZM92.6873 43.125L94.9933 40.5788C95.1867 40.3652 95.308 40.232 95.4066 40.1396C95.5002 40.0519 95.5354 40.0382 95.5438 40.0352C95.6196 40.008 95.7012 40.008 95.777 40.0352C95.7853 40.0382 95.8206 40.0519 95.9142 40.1396C96.0128 40.232 96.1341 40.3652 96.3275 40.5788L98.8679 43.3839V44.375C98.8679 45.2604 98.8675 45.8869 98.8312 46.3766C98.7955 46.859 98.7279 47.1535 98.6211 47.385C98.4041 47.8554 98.0577 48.2378 97.6317 48.4775C97.6104 48.4895 97.5886 48.501 97.5661 48.512L92.6873 43.125ZM90.6671 42.6621C90.4737 42.4486 90.3524 42.3153 90.2538 42.2229C90.1602 42.1352 90.1249 42.1215 90.1166 42.1185C90.0408 42.0913 89.9592 42.0913 89.8834 42.1185C89.8751 42.1215 89.8398 42.1352 89.7462 42.2229C89.6476 42.3153 89.5263 42.4486 89.3329 42.6621L83.8288 48.7396C84.1758 48.7498 84.5884 48.75 85.0943 48.75H94.9057C95.4116 48.75 95.8242 48.7498 96.1712 48.7396L90.6671 42.6621ZM86.2264 35.4167C85.497 35.4167 84.9057 36.0696 84.9057 36.875C84.9057 37.6804 85.497 38.3333 86.2264 38.3333C86.9558 38.3333 87.5472 37.6804 87.5472 36.875C87.5472 36.0696 86.9558 35.4167 86.2264 35.4167ZM83.7736 36.875C83.7736 35.3792 84.8718 34.1667 86.2264 34.1667C87.5811 34.1667 88.6792 35.3792 88.6792 36.875C88.6792 38.3708 87.5811 39.5833 86.2264 39.5833C84.8718 39.5833 83.7736 38.3708 83.7736 36.875Z" fill="#8E93A8"/>
<rect x="0.5" y="0.5" width="179" height="79" rx="7.5" stroke="#E6E6ED"/>
</svg>
