<svg width="20" height="20" viewBox="0 0 20 20" fill="none" xmlns="http://www.w3.org/2000/svg">
<g clip-path="url(#clip0_4716_75163)">
<path d="M13.8003 7.45L6.35033 0L5.17533 1.175L7.15866 3.15833L2.86699 7.45C2.37533 7.94167 2.37533 8.73333 2.86699 9.21667L7.45033 13.8C7.69199 14.0417 8.01699 14.1667 8.33366 14.1667C8.65033 14.1667 8.97533 14.0417 9.21699 13.8L13.8003 9.21667C14.292 8.73333 14.292 7.94167 13.8003 7.45ZM4.34199 8.33333L8.33366 4.34167L12.3253 8.33333H4.34199ZM15.8337 9.58333C15.8337 9.58333 14.167 11.3917 14.167 12.5C14.167 13.4167 14.917 14.1667 15.8337 14.1667C16.7503 14.1667 17.5003 13.4167 17.5003 12.5C17.5003 11.3917 15.8337 9.58333 15.8337 9.58333ZM1.66699 16.6667H18.3337V20H1.66699V16.6667Z" fill="#CBCEDA"/>
</g>
<defs>
<clipPath id="clip0_4716_75163">
<rect width="20" height="20" fill="white"/>
</clipPath>
</defs>
</svg>
